<?xml version="1.0" encoding="utf-8"?>
<!-- Generator: Adobe Illustrator 19.2.1, SVG Export Plug-In . SVG Version: 6.00 Build 0)  -->
<svg version="1.1" id="layer" xmlns="http://www.w3.org/2000/svg" xmlns:xlink="http://www.w3.org/1999/xlink" x="0px" y="0px"
	 viewBox="0 0 652 652" style="enable-background:new 0 0 652 652;" xml:space="preserve">
<style type="text/css">
	.st0{fill:#ffffff;}
</style>
<g>
	<g>
		<path class="st0" d="M490.4,367.7h-39.1v-42c0-3.7-3-6.7-6.7-6.7c-3.7,0-6.7,3-6.7,6.7v42h-39.9c0,0-0.1,0-0.1-0.1v-99.8
			c0-11.4,9.5-20.5,21-20c10.8,0.5,19.2,9.8,19.2,20.7v15.3h10.5c23.2,0,42,18.8,42,42L490.4,367.7L490.4,367.7z"/>
	</g>
	<g>
		<path class="st0" d="M594.2,325.7c0-23.2-18.8-42-42-42h-10.5v-15.3c0-10.8-8.3-20.2-19.2-20.7c-11.5-0.5-21,8.7-21,20v99.8
			c0,0,0,0.1,0.1,0.1h39.9v-42c0-3.7,3-6.7,6.7-6.7c3.7,0,6.7,3,6.7,6.7v42h39.1L594.2,325.7L594.2,325.7z"/>
	</g>
	<g>
		<path class="st0" d="M338.5,325.7c0-3.7,3-6.7,6.7-6.7h41.2v-35.3H347c-23.2,0-42,18.8-42,42c0,23.2,18.8,42,42,42h39.4v-35.3
			h-41.2C341.5,332.4,338.5,329.4,338.5,325.7"/>
	</g>
	<g>
		<path class="st0" d="M296.4,325.7c0-23.2-18.8-42-42-42s-42,18.8-42,42v42h35.3v-42c0-3.7,3-6.7,6.7-6.7c3.7,0,6.7,3,6.7,6.7v42
			h35.3L296.4,325.7L296.4,325.7z"/>
	</g>
	<g>
		<path class="st0" d="M167.4,283.7v42c0,3.7-3,6.7-6.7,6.7c-3.7,0-6.7-3-6.7-6.7v-42h-35.3v42c0,23.2,18.8,42,42,42
			c23.2,0,42-18.8,42-42v-42H167.4z"/>
	</g>
	<g>
		<path class="st0" d="M67.7,283.7h-42v35.3h42c3.7,0,6.7,3,6.7,6.7c0,3.7-3,6.7-6.7,6.7h-42v51.1c0,10.8,8.3,20.2,19.2,20.7
			c11.5,0.5,21-8.7,21-20v-16.4h1.9c23.2,0,42-18.8,42-42C109.7,302.5,90.8,283.7,67.7,283.7"/>
	</g>
	<g>
		<path class="st0" d="M615.3,367.7c-5.7,0-10.3-4.6-10.3-10.4c0-5.7,4.6-10.4,10.3-10.3c5.7,0,10.4,4.6,10.3,10.4
			C625.7,363.1,621,367.7,615.3,367.7 M615.3,348.8c-4.8,0-8.4,3.5-8.4,8.5c0,5.1,3.6,8.5,8.4,8.5c4.8,0,8.4-3.5,8.4-8.5
			C623.7,352.3,620.2,348.8,615.3,348.8 M617.9,363.2l-2.6-4c-0.6-0.9-0.9-1.1-1.7-1.1l0,5.1l-2.2,0l0-12l4.1,0c2.6,0,4,1.5,4,3.5
			c0,1.8-1.2,2.9-3,3.1c0.4,0.3,0.9,0.9,1.4,1.7l2.5,3.7L617.9,363.2z M615.2,353l-1.5,0l0,3.5l1.2,0c1.3,0,2.4-0.3,2.4-1.7
			C617.3,353.7,616.7,353,615.2,353"/>
	</g>
</g>
</svg>
